# xmcd
#
# Track frame offsets:
# 150
# 67169
# 100447
# 131468
#
# Disc length: 2742 seconds
#
#
# Revision: 0
# Processed by: cddbd v1.5.2PL0 Copyright (c) Steve Scherf et al.
# Submitted via: FreeRIP 2.945 
#
DISCID=370ab404
DTITLE=mario zan - os grandes sucessos  mariozan
DYEAR=1991
DGENRE=Folklore
TTITLE0=quadrilha completa marcada e falada
TTITLE1=quadrilha para ser marcada
TTITLE2=chegou a hora da fogueira, sonho de papel pedro
TTITLE3=pula a fogueira, caicai balão noites de junho araia de sto antonio
EXTD=
EXTT0=
EXTT1=
EXTT2=
EXTT3=
PLAYORDER=
